<?xml version="1.0" standalone="no"?>
<!DOCTYPE svg PUBLIC "-//W3C//DTD SVG 20010904//EN"
 "http://www.w3.org/TR/2001/REC-SVG-20010904/DTD/svg10.dtd">
<svg version="1.0" xmlns="http://www.w3.org/2000/svg"
 width="48.000000pt" height="48.000000pt" viewBox="0 0 48.000000 48.000000"
 preserveAspectRatio="xMidYMid meet">

<g transform="translate(0.000000,48.000000) scale(0.100000,-0.100000)"
fill="#72B01D" stroke="none">
<path d="M132 355 c-46 -20 -64 -67 -60 -158 l3 -72 65 0 65 0 0 65 0 65 -38
3 c-30 3 -37 7 -35 20 2 9 13 21 26 27 15 7 22 18 22 37 0 32 -3 33 -48 13z"/>
<path d="M332 355 c-46 -20 -64 -67 -60 -158 l3 -72 65 0 65 0 0 65 0 65 -38
3 c-30 3 -37 7 -35 20 2 9 13 21 26 27 15 7 22 18 22 37 0 32 -3 33 -48 13z"/>
</g>
</svg>
